<svg preserveAspectRatio="none" width="100%" height="100%" overflow="visible" style="display: block;" viewBox="0 0 155.043 30" fill="none" xmlns="http://www.w3.org/2000/svg">
<g id="1 1" clip-path="url(#clip0_0_4)">
<path id="Vector" d="M108.273 11.9528C107.956 11.7171 107.609 11.5167 107.224 11.3458C106.448 10.998 105.58 10.8271 104.624 10.8271C103.302 10.8271 102.129 11.1277 101.105 11.7289C100.082 12.3301 99.2748 13.1493 98.6915 14.1807C98.1082 15.2181 97.8165 16.3969 97.8165 17.7289C97.8165 19.0609 98.1082 20.2397 98.6915 21.277C99.2748 22.3143 100.082 23.1336 101.105 23.7289C102.129 24.3242 103.302 24.6306 104.624 24.6306C105.58 24.6306 106.455 24.442 107.236 24.0707C107.652 23.8762 108.024 23.6405 108.353 23.3694V24.3536H112.66V4.5501H108.266V11.947L108.273 11.9528ZM107.038 20.4637C106.579 20.7289 106.033 20.8585 105.4 20.8585C104.804 20.8585 104.27 20.723 103.792 20.4519C103.315 20.1807 102.942 19.8094 102.675 19.332C102.409 18.8605 102.272 18.3242 102.272 17.723C102.272 17.1218 102.409 16.5855 102.688 16.1139C102.967 15.6424 103.339 15.2711 103.805 14.9941C104.276 14.723 104.816 14.5874 105.424 14.5874C106.033 14.5874 106.579 14.723 107.044 14.9941C107.516 15.2652 107.876 15.6365 108.136 16.0963C108.397 16.5619 108.521 17.0982 108.521 17.7171C108.521 18.336 108.384 18.8782 108.118 19.3556C107.851 19.8271 107.485 20.1984 107.025 20.4578L107.038 20.4637Z" fill="var(--fill-0, #000945)"/>
<path id="Vector_2" d="M123.259 21.0943C122.707 21.3242 122.08 21.4361 121.391 21.4361C120.646 21.4361 120.001 21.2888 119.455 20.9882C118.909 20.6876 118.487 20.2633 118.189 19.7092C118.09 19.5265 118.015 19.3261 117.947 19.1198L127.932 19.0963C128.006 18.7485 128.062 18.4479 128.087 18.1827C128.118 17.9175 128.13 17.6699 128.13 17.4342C128.13 16.1434 127.826 15 127.224 13.998C126.622 12.9961 125.791 12.2181 124.742 11.6523C123.687 11.0864 122.477 10.8094 121.093 10.8094C119.709 10.8094 118.406 11.11 117.277 11.7112C116.147 12.3124 115.254 13.1316 114.59 14.1807C113.932 15.224 113.597 16.4145 113.597 17.7407C113.597 19.0668 113.932 20.2574 114.602 21.3124C115.272 22.3674 116.197 23.1925 117.376 23.7819C118.555 24.3713 119.896 24.666 121.41 24.666C122.576 24.666 123.65 24.4774 124.624 24.0943C125.598 23.7112 126.436 23.1395 127.125 22.3733L124.711 20.0806C124.289 20.5344 123.799 20.8762 123.246 21.1061L123.259 21.0943ZM119.337 14.4401C119.846 14.1395 120.442 13.9921 121.13 13.9921C121.782 13.9921 122.334 14.1218 122.781 14.387C123.228 14.6523 123.569 15.0354 123.799 15.5305C123.892 15.7367 123.966 15.9784 124.028 16.2318L117.947 16.2495C118.009 16.0609 118.071 15.8782 118.158 15.7073C118.437 15.1591 118.828 14.7407 119.337 14.4401Z" fill="var(--fill-0, #000945)"/>
<path id="Vector_3" d="M133.392 14.3045C133.641 14.169 134.013 14.0982 134.516 14.0982C135.018 14.0982 135.564 14.1984 136.11 14.3988C136.656 14.5992 137.147 14.947 137.587 15.4361L140.088 13.0373C139.455 12.2711 138.636 11.6994 137.631 11.3045C136.625 10.9155 135.527 10.721 134.342 10.721C133.157 10.721 132.226 10.9037 131.382 11.2692C130.538 11.6346 129.886 12.1297 129.427 12.7544C128.968 13.3792 128.738 14.1218 128.738 14.9764C128.738 15.778 128.9 16.4381 129.229 16.9509C129.551 17.4695 129.973 17.8762 130.494 18.165C131.009 18.4538 131.556 18.6837 132.133 18.8487C132.71 19.0138 133.256 19.1611 133.771 19.2967C134.286 19.4322 134.714 19.5855 135.049 19.7623C135.384 19.9332 135.552 20.1866 135.552 20.5108C135.552 20.7642 135.415 20.9646 135.136 21.112C134.857 21.2593 134.46 21.3301 133.945 21.3301C133.2 21.3301 132.511 21.2004 131.878 20.9352C131.245 20.6699 130.699 20.3045 130.24 19.833L127.739 22.2318C128.217 22.721 128.794 23.1572 129.477 23.5285C130.159 23.8998 130.892 24.1886 131.686 24.389C132.48 24.5894 133.287 24.6896 134.112 24.6896C135.856 24.6896 137.24 24.3065 138.264 23.5462C139.288 22.7859 139.803 21.7544 139.803 20.4637C139.803 19.6267 139.641 18.9489 139.312 18.4303C138.99 17.9116 138.568 17.499 138.046 17.1866C137.531 16.8802 136.985 16.6326 136.408 16.4499C135.831 16.2672 135.285 16.1139 134.77 15.9843C134.255 15.8546 133.833 15.7132 133.504 15.5481C133.175 15.3831 133.014 15.165 133.014 14.8939C133.014 14.6405 133.138 14.446 133.386 14.3045H133.392Z" fill="var(--fill-0, #000945)"/>
<path id="Vector_4" d="M155.043 24.3536L149.657 17.3458L154.758 11.0982H149.849L145.338 17.0275V4.5501H140.944V24.3536H145.338V17.9646L149.874 24.3536H155.043Z" fill="var(--fill-0, #000945)"/>
<path id="Vector_5" d="M60.3604 6.28291C59.4234 5.81729 58.3623 5.58743 57.1708 5.58743H53.2428C51.3687 5.58743 49.8484 7.03143 49.8484 8.81139V24.3536H51.9458V16.8271H57.1708C58.3561 16.8271 59.4172 16.5973 60.3604 16.1316C61.2974 15.666 62.0421 15.0118 62.5882 14.169C63.1343 13.3261 63.4073 12.336 63.4073 11.2102C63.4073 10.0845 63.1343 9.07662 62.5882 8.23969C62.0421 7.40275 61.2974 6.75442 60.3604 6.2888V6.28291ZM60.7203 13.2672C60.348 13.8389 59.8392 14.2809 59.2 14.5874C58.5608 14.8939 57.8348 15.053 57.0343 15.053H51.952V8.99411C51.952 8.07466 52.7339 7.33202 53.702 7.33202H57.0343C57.841 7.33202 58.5608 7.49116 59.2 7.80943C59.8392 8.1277 60.348 8.57564 60.7203 9.14735C61.0927 9.71906 61.2788 10.4086 61.2788 11.2043C61.2788 12 61.0927 12.6896 60.7203 13.2613V13.2672Z" fill="var(--fill-0, #6C41FF)"/>
<path id="Vector_6" d="M66.8513 11.5344H64.8159V24.3536H66.8513V11.5344Z" fill="var(--fill-0, #6C41FF)"/>
<path id="Vector_7" d="M65.8212 6.07662C65.4365 6.07662 65.1138 6.20629 64.847 6.45972C64.5801 6.71316 64.4436 7.03143 64.4436 7.41454C64.4436 7.79764 64.5739 8.09234 64.847 8.35756C65.1138 8.62279 65.4427 8.75246 65.8212 8.75246C66.2432 8.75246 66.5845 8.62279 66.8389 8.35756C67.0995 8.09234 67.2237 7.77996 67.2237 7.41454C67.2237 7.03143 67.0933 6.71316 66.8389 6.45972C66.5783 6.20629 66.2432 6.07662 65.8212 6.07662Z" fill="var(--fill-0, #6C41FF)"/>
<path id="Vector_8" d="M80.3482 11.5344H77.9653L74.1303 16.391L70.2395 11.5344H67.7449L72.8272 17.7701L67.5153 24.3536H69.8982L74.0434 19.0845L78.108 24.3536H80.5778L75.3342 17.723L80.3482 11.5344Z" fill="var(--fill-0, #6C41FF)"/>
<path id="Vector_9" d="M90.0969 12.053C89.1475 11.5285 88.0616 11.2633 86.8391 11.2633C85.5359 11.2633 84.3569 11.5521 83.3082 12.1356C82.2533 12.7191 81.4217 13.5147 80.8074 14.5226C80.193 15.5305 79.889 16.6621 79.889 17.9175C79.889 19.1729 80.1993 20.334 80.8198 21.3536C81.4403 22.3733 82.2905 23.169 83.3578 23.7525C84.4314 24.336 85.6476 24.6248 87.0066 24.6248C88.0802 24.6248 89.0793 24.4303 90.0101 24.0354C90.9409 23.6464 91.7166 23.0923 92.3495 22.3851L91.0588 21.1297C90.581 21.6955 89.9977 22.1139 89.3089 22.3969C88.62 22.6798 87.863 22.8212 87.0377 22.8212C86.0262 22.8212 85.1264 22.6149 84.3507 22.1965C83.575 21.778 82.9731 21.1945 82.5449 20.4519C82.2346 19.9155 82.0423 19.3143 81.9554 18.6542H93.0135C93.0694 18.4008 93.1066 18.1768 93.1314 17.9882C93.15 17.7996 93.1624 17.6287 93.1624 17.4813C93.1624 16.2613 92.8894 15.1886 92.3433 14.2515C91.7972 13.3143 91.0526 12.5835 90.1032 12.0589L90.0969 12.053ZM84.2266 13.6326C84.9526 13.2318 85.8028 13.0314 86.7832 13.0314C87.7637 13.0314 88.5208 13.22 89.1785 13.5914C89.8363 13.9627 90.3452 14.4931 90.6989 15.1709C90.9781 15.7014 91.1333 16.3202 91.1829 17.0098H81.9616C82.0485 16.3792 82.2284 15.8075 82.5201 15.3065C82.9296 14.5874 83.5006 14.0275 84.2266 13.6267V13.6326Z" fill="var(--fill-0, #6C41FF)"/>
<path id="Vector_10" d="M96.2279 5.04519H94.2174V24.3536H96.2279V5.04519Z" fill="var(--fill-0, #6C41FF)"/>
<path id="Vector_11" d="M18.4736 0H6.07514C2.71799 0 0 2.58153 0 5.77014V13.7446C0 16.9332 2.71799 19.5147 6.07514 19.5147H11.4304C11.8276 14.4695 16.2521 10.4853 21.6632 10.4853H28.7064C28.725 10.2436 28.7436 10.002 28.7436 9.75442C28.7499 4.36739 24.1454 0 18.4736 0ZM6.41644 8.55206C4.80302 8.55206 3.49987 7.31434 3.49987 5.78193C3.49987 4.24951 4.80302 3.01179 6.41644 3.01179C8.02985 3.01179 9.333 4.24951 9.333 5.78193C9.333 7.31434 8.02985 8.55206 6.41644 8.55206Z" fill="var(--fill-0, #6C41FF)"/>
<path id="Vector_12" d="M34.0617 10.4853H28.7064C28.3093 15.5305 23.8848 19.5147 18.4736 19.5147H11.4304C11.4118 19.7564 11.3932 19.998 11.3932 20.2456C11.3932 25.6326 15.9914 30.0059 21.6694 30.0059H34.0679C37.4251 30.0059 40.1431 27.4244 40.1431 24.2358V16.2613C40.1431 13.0727 37.4251 10.4912 34.0679 10.4912L34.0617 10.4853ZM33.5343 26.5344C31.9208 26.5344 30.6177 25.2967 30.6177 23.7642C30.6177 22.2318 31.9208 20.9941 33.5343 20.9941C35.1477 20.9941 36.4508 22.2318 36.4508 23.7642C36.4508 25.2967 35.1477 26.5344 33.5343 26.5344Z" fill="var(--fill-0, #000945)"/>
</g>
<defs>
<clipPath id="clip0_0_4">
<rect width="155.043" height="30" fill="white"/>
</clipPath>
</defs>
</svg>
