<svg preserveAspectRatio="none" width="100%" height="100%" overflow="visible" style="display: block;" viewBox="0 0 168 34" fill="none" xmlns="http://www.w3.org/2000/svg">
<g id="1 2" clip-path="url(#clip0_0_18)">
<path id="Vector" d="M117.321 13.5466C116.978 13.2794 116.601 13.0523 116.185 12.8585C115.344 12.4644 114.403 12.2707 113.367 12.2707C111.935 12.2707 110.664 12.6114 109.555 13.2927C108.445 13.9741 107.571 14.9026 106.939 16.0715C106.307 17.2471 105.991 18.5831 105.991 20.0927C105.991 21.6024 106.307 22.9383 106.939 24.1139C107.571 25.2896 108.445 26.2181 109.555 26.8927C110.664 27.5674 111.935 27.9147 113.367 27.9147C114.403 27.9147 115.351 27.701 116.198 27.2802C116.649 27.0597 117.052 26.7925 117.408 26.4853V27.6008H122.075V5.15678H117.314V13.5399L117.321 13.5466ZM115.983 23.1921C115.485 23.4927 114.894 23.6397 114.208 23.6397C113.562 23.6397 112.984 23.4861 112.466 23.1788C111.948 22.8715 111.545 22.4507 111.256 21.9096C110.967 21.3752 110.819 20.7674 110.819 20.086C110.819 19.4047 110.967 18.7969 111.269 18.2625C111.572 17.7281 111.975 17.3073 112.48 16.9933C112.991 16.6861 113.576 16.5324 114.235 16.5324C114.894 16.5324 115.485 16.6861 115.99 16.9933C116.501 17.3006 116.891 17.7214 117.173 18.2424C117.455 18.7701 117.59 19.378 117.59 20.0794C117.59 20.7807 117.442 21.3953 117.153 21.9363C116.864 22.4707 116.467 22.8916 115.969 23.1855L115.983 23.1921Z" fill="var(--fill-0, white)"/>
<path id="Vector_2" d="M133.56 23.9069C132.961 24.1674 132.282 24.2943 131.536 24.2943C130.729 24.2943 130.029 24.1273 129.438 23.7866C128.846 23.446 128.389 22.965 128.066 22.3371C127.958 22.1301 127.878 21.9029 127.804 21.6692L138.623 21.6424C138.703 21.2483 138.764 20.9077 138.791 20.6071C138.824 20.3065 138.838 20.0259 138.838 19.7587C138.838 18.2959 138.508 17 137.856 15.8644C137.204 14.7289 136.303 13.8472 135.167 13.2059C134.023 12.5646 132.712 12.2507 131.213 12.2507C129.713 12.2507 128.301 12.5914 127.078 13.2727C125.854 13.954 124.886 14.8825 124.166 16.0715C123.453 17.2538 123.09 18.6031 123.09 20.1061C123.09 21.609 123.453 22.9583 124.179 24.154C124.906 25.3497 125.908 26.2849 127.185 26.9528C128.463 27.6208 129.915 27.9548 131.556 27.9548C132.82 27.9548 133.983 27.7411 135.039 27.3069C136.094 26.8727 137.002 26.2248 137.749 25.3564L135.133 22.758C134.676 23.2723 134.144 23.6597 133.546 23.9202L133.56 23.9069ZM129.31 16.3654C129.861 16.0248 130.507 15.8578 131.253 15.8578C131.959 15.8578 132.558 16.0047 133.042 16.3053C133.526 16.6059 133.896 17.0401 134.144 17.6012C134.245 17.835 134.326 18.1088 134.393 18.3961L127.804 18.4161C127.871 18.2024 127.938 17.9953 128.032 17.8016C128.335 17.1804 128.759 16.7061 129.31 16.3654Z" fill="var(--fill-0, white)"/>
<path id="Vector_3" d="M144.54 16.2118C144.809 16.0582 145.212 15.978 145.757 15.978C146.302 15.978 146.893 16.0916 147.485 16.3187C148.077 16.5458 148.608 16.9399 149.085 17.4943L151.795 14.7756C151.109 13.9073 150.222 13.2593 149.132 12.8118C148.043 12.3709 146.853 12.1505 145.569 12.1505C144.284 12.1505 143.276 12.3576 142.361 12.7717C141.447 13.1859 140.741 13.747 140.243 14.455C139.746 15.1631 139.497 16.0047 139.497 16.9733C139.497 17.8817 139.672 18.6299 140.028 19.211C140.378 19.7988 140.835 20.2597 141.4 20.587C141.958 20.9143 142.55 21.1749 143.175 21.3619C143.8 21.5489 144.392 21.7159 144.95 21.8695C145.508 22.0232 145.972 22.1969 146.335 22.3972C146.698 22.591 146.88 22.8782 146.88 23.2456C146.88 23.5328 146.732 23.7599 146.429 23.9269C146.127 24.0939 145.696 24.1741 145.138 24.1741C144.331 24.1741 143.585 24.0271 142.899 23.7265C142.213 23.4259 141.622 23.0118 141.124 22.4774L138.414 25.1961C138.932 25.7505 139.557 26.2448 140.297 26.6656C141.037 27.0864 141.83 27.4138 142.691 27.6409C143.551 27.868 144.426 27.9815 145.32 27.9815C147.209 27.9815 148.709 27.5473 149.818 26.6857C150.928 25.824 151.486 24.655 151.486 23.1921C151.486 22.2436 151.311 21.4754 150.955 20.8876C150.605 20.2998 150.148 19.8322 149.583 19.4782C149.025 19.1308 148.433 18.8503 147.808 18.6432C147.182 18.4361 146.591 18.2625 146.033 18.1155C145.474 17.9686 145.017 17.8083 144.661 17.6212C144.304 17.4342 144.13 17.187 144.13 16.8798C144.13 16.5925 144.264 16.3721 144.533 16.2118H144.54Z" fill="var(--fill-0, white)"/>
<path id="Vector_4" d="M168 27.6008L162.164 19.6585L167.691 12.578H162.372L157.484 19.2978V5.15678H152.723V27.6008H157.484V20.3599L162.399 27.6008H168Z" fill="var(--fill-0, white)"/>
<path id="Vector_5" d="M65.4047 7.12063C64.3894 6.59293 63.2395 6.33242 61.9485 6.33242H57.6922C55.6616 6.33242 54.0142 7.96896 54.0142 9.98625V27.6008H56.2869V19.0707H61.9485C63.2328 19.0707 64.3826 18.8102 65.4047 18.2825C66.42 17.7548 67.2269 17.0134 67.8186 16.0582C68.4103 15.1029 68.7062 13.9807 68.7062 12.7049C68.7062 11.4291 68.4103 10.2868 67.8186 9.33831C67.2269 8.38978 66.42 7.65501 65.4047 7.12731V7.12063ZM65.7947 15.0361C65.3912 15.6841 64.8399 16.1851 64.1473 16.5324C63.4547 16.8798 62.668 17.0601 61.8006 17.0601H56.2936V10.1933C56.2936 9.15128 57.1408 8.30963 58.1898 8.30963H61.8006C62.6747 8.30963 63.4547 8.48998 64.1473 8.85069C64.8399 9.21139 65.3912 9.71906 65.7947 10.367C66.1981 11.0149 66.3998 11.7965 66.3998 12.6982C66.3998 13.6 66.1981 14.3815 65.7947 15.0295V15.0361Z" fill="var(--fill-0, #6C41FF)"/>
<path id="Vector_6" d="M72.438 13.0723H70.2325V27.6008H72.438V13.0723Z" fill="var(--fill-0, #6C41FF)"/>
<path id="Vector_7" d="M71.3218 6.88684C70.9049 6.88684 70.5553 7.03379 70.2662 7.32102C69.977 7.60825 69.8291 7.96896 69.8291 8.40314C69.8291 8.83733 69.9703 9.17132 70.2662 9.47191C70.5553 9.7725 70.9117 9.91945 71.3218 9.91945C71.7791 9.91945 72.1489 9.7725 72.4246 9.47191C72.707 9.17132 72.8415 8.81729 72.8415 8.40314C72.8415 7.96896 72.7003 7.60825 72.4246 7.32102C72.1422 7.03379 71.7791 6.88684 71.3218 6.88684Z" fill="var(--fill-0, #6C41FF)"/>
<path id="Vector_8" d="M87.0628 13.0723H84.4808L80.3253 18.5764L76.1093 13.0723H73.4063L78.9133 20.1395L73.1575 27.6008H75.7395L80.2312 21.6291L84.6354 27.6008H87.3116L81.6298 20.0861L87.0628 13.0723Z" fill="var(--fill-0, #6C41FF)"/>
<path id="Vector_9" d="M97.6263 13.6601C96.5975 13.0656 95.4208 12.765 94.0961 12.765C92.6841 12.765 91.4065 13.0923 90.2702 13.7536C89.1271 14.4149 88.2261 15.3167 87.5604 16.4589C86.8947 17.6012 86.5652 18.8837 86.5652 20.3065C86.5652 21.7293 86.9014 23.0452 87.5738 24.2008C88.2462 25.3564 89.1674 26.2582 90.324 26.9194C91.4872 27.5807 92.8051 27.9081 94.2777 27.9081C95.4409 27.9081 96.5235 27.6876 97.5321 27.2401C98.5407 26.7992 99.3812 26.1713 100.067 25.3697L98.6685 23.947C98.1507 24.5882 97.5187 25.0625 96.7723 25.3831C96.0259 25.7037 95.2056 25.864 94.3113 25.864C93.2153 25.864 92.2403 25.6303 91.3998 25.156C90.5593 24.6817 89.9071 24.0204 89.4431 23.1788C89.1069 22.5709 88.8985 21.8896 88.8043 21.1415H100.787C100.847 20.8542 100.887 20.6004 100.914 20.3866C100.934 20.1729 100.948 19.9792 100.948 19.8122C100.948 18.4295 100.652 17.2138 100.06 16.1517C99.4686 15.0896 98.6618 14.2613 97.633 13.6668L97.6263 13.6601ZM91.2653 15.4503C92.052 14.9961 92.9732 14.769 94.0356 14.769C95.098 14.769 95.9184 14.9827 96.6311 15.4035C97.3439 15.8244 97.8952 16.4255 98.2785 17.1937C98.5811 17.7949 98.7492 18.4963 98.803 19.2778H88.811C88.9052 18.5631 89.1002 17.9151 89.4162 17.3473C89.86 16.5324 90.4786 15.8978 91.2653 15.4436V15.4503Z" fill="var(--fill-0, #6C41FF)"/>
<path id="Vector_10" d="M104.27 5.71788H102.091V27.6008H104.27V5.71788Z" fill="var(--fill-0, #6C41FF)"/>
<path id="Vector_11" d="M20.0174 0H6.58283C2.94513 0 0 2.92574 0 6.53949V15.5772C0 19.191 2.94513 22.1167 6.58283 22.1167H12.3857C12.816 16.3988 17.6102 11.8833 23.4736 11.8833H31.1054C31.1255 11.6094 31.1457 11.3356 31.1457 11.055C31.1524 4.9497 26.1632 0 20.0174 0ZM6.95265 9.69234C5.2044 9.69234 3.79235 8.28959 3.79235 6.55285C3.79235 4.81611 5.2044 3.41336 6.95265 3.41336C8.7009 3.41336 10.1129 4.81611 10.1129 6.55285C10.1129 8.28959 8.7009 9.69234 6.95265 9.69234Z" fill="var(--fill-0, #6C41FF)"/>
<path id="Vector_12" d="M36.9082 11.8833H31.1054C30.675 17.6012 25.8808 22.1167 20.0174 22.1167H12.3857C12.3655 22.3906 12.3453 22.6644 12.3453 22.945C12.3453 29.0503 17.3278 34.0067 23.4803 34.0067H36.9149C40.5527 34.0067 43.4978 31.0809 43.4978 27.4672V18.4295C43.4978 14.8157 40.5527 11.89 36.9149 11.89L36.9082 11.8833ZM36.3367 30.0723C34.5884 30.0723 33.1764 28.6695 33.1764 26.9328C33.1764 25.1961 34.5884 23.7933 36.3367 23.7933C38.0849 23.7933 39.497 25.1961 39.497 26.9328C39.497 28.6695 38.0849 30.0723 36.3367 30.0723Z" fill="var(--fill-0, white)"/>
</g>
<defs>
<clipPath id="clip0_0_18">
<rect width="168" height="34" fill="white"/>
</clipPath>
</defs>
</svg>
