<svg preserveAspectRatio="none" width="100%" height="100%" overflow="visible" style="display: block;" viewBox="0 0 54.7803 134.782" fill="none" xmlns="http://www.w3.org/2000/svg">
<g id="Group">
<path id="Vector" d="M33.8307 7.42636C33.8307 7.42636 33.9723 2.24646 36.9456 0.778281C39.919 -0.694482 40.0879 4.15967 40.0879 4.15967C40.0879 4.15967 46.8932 -0.18062 48.3685 3.10901C49.8437 6.39864 47.7838 7.99069 47.7838 7.99069C47.7838 7.99069 53.8264 7.77964 54.242 11.106C54.6577 14.4323 51.5427 16.0611 51.5427 16.0611C51.5427 16.0611 55.2788 19.1213 53.968 20.5344C52.6572 21.9475 49.7889 22.0485 49.7889 22.0485C49.7889 22.0485 51.4149 25.3335 48.5831 26.4943C45.7514 27.6551 42.4995 25.4941 42.4995 25.4941C42.4995 25.4941 43.0064 26.9944 40.8735 26.6136C38.7451 26.2328 36.5939 25.2463 35.274 22.1035C33.954 18.9607 32.2504 10.0783 33.8399 7.43095L33.8307 7.42636Z" fill="var(--fill-0, #263238)" stroke="var(--stroke-0, #263238)" stroke-linecap="round" stroke-linejoin="round"/>
<g id="Group_2">
<path id="Vector_2" d="M2.43495 107.469C2.43495 107.469 0.74049 113.965 0.763327 114.686C0.786163 115.411 0.206109 117.039 0.699378 117.503C1.19721 117.966 3.41236 119.499 3.65443 119.572C3.89649 119.645 4.609 119.379 4.84193 119.21C5.07486 119.04 5.22102 118.631 5.21188 118.393C5.20275 118.15 4.52678 117.131 4.44001 116.893C4.35323 116.654 5.68688 113.552 6.19385 112.006C6.70082 110.46 7.00683 107.794 7.00683 107.794L2.43039 107.473L2.43495 107.469Z" fill="var(--fill-0, #BDBDBD)" stroke="var(--stroke-0, #263238)" stroke-miterlimit="10"/>
<g id="Vector_3">
<path d="M4.27567 111.988C4.27567 111.988 3.31197 114.273 3.24803 114.677C3.18409 115.08 1.85955 116.172 2.05138 117.053C2.24321 117.934 4.15691 117.705 5.10691 115.094" fill="var(--fill-0, #BDBDBD)"/>
<path d="M4.27567 111.988C4.27567 111.988 3.31197 114.273 3.24803 114.677C3.18409 115.08 1.85955 116.172 2.05138 117.053C2.24321 117.934 4.15691 117.705 5.10691 115.094" stroke="var(--stroke-0, #263238)" stroke-miterlimit="10"/>
</g>
</g>
<path id="Vector_4" d="M8.59165 72.1774C8.59165 72.1774 7.78324 85.4277 7.47723 86.5977C7.17122 87.7676 3.49911 98.4532 2.6907 101.729C1.88229 105.005 1.63564 107.914 1.63564 107.914L6.56834 108.955L9.33156 96.7419C9.33156 96.7419 12.9489 85.6296 12.2272 80.4038C11.5056 75.178 8.59165 72.1774 8.59165 72.1774Z" fill="var(--fill-0, #6C41FF)" stroke="var(--stroke-0, #263238)" stroke-miterlimit="10"/>
<g id="Group_3">
<g id="Vector_5">
<path d="M34.2645 134.772C34.3193 131.891 34.4426 128.005 34.6984 125.78C35.1414 121.935 36.7902 119.558 38.471 114.745C40.1518 109.932 40.2797 103.661 40.2797 103.661L10.1811 104.716C10.1811 104.716 6.70537 117.714 4.61354 127.298C3.91018 130.51 3.65441 132.946 3.61787 134.772" fill="var(--fill-0, #6C41FF)"/>
<path d="M34.2645 134.772C34.3193 131.891 34.4426 128.005 34.6984 125.78C35.1414 121.935 36.7902 119.558 38.471 114.745C40.1518 109.932 40.2797 103.661 40.2797 103.661L10.1811 104.716C10.1811 104.716 6.70537 117.714 4.61354 127.298C3.91018 130.51 3.65441 132.946 3.61787 134.772" stroke="var(--stroke-0, #263238)" stroke-miterlimit="10"/>
</g>
<path id="Vector_6" d="M14.1638 109.611L39.2064 110.318L39.7362 108.373L14.1638 109.611Z" fill="var(--fill-0, #263238)" stroke="var(--stroke-0, #263238)" stroke-linecap="round" stroke-linejoin="round"/>
<g id="Vector_7">
<path d="M12.8986 134.309C12.8986 134.309 12.4054 118.576 12.3917 110.043Z" fill="var(--fill-0, white)"/>
<path d="M12.8986 134.309C12.8986 134.309 12.4054 118.576 12.3917 110.043" stroke="var(--stroke-0, #263238)" stroke-miterlimit="10"/>
</g>
</g>
<g id="Group_4">
<path id="Vector_8" d="M32.0951 38.8958L35.7489 41.3641C35.7489 41.3641 40.065 45.2502 41.1429 48.4481C42.2208 51.6414 41.4352 70.7368 40.3619 76.9123C39.2886 83.0878 41.9696 90.7499 42.9242 95.081C43.8787 99.4121 44.3172 107.473 44.3172 107.473C44.3172 107.473 44.9931 108.418 33.2643 108.831C21.5354 109.244 13.3554 109.85 12.3963 110.047C11.4371 110.245 10.6333 110.272 10.6333 110.272L10.1674 106.088L8.9982 109.52L6.56838 108.96C6.56838 108.96 8.07559 101.477 8.45924 98.5542C8.83833 95.6316 11.2316 85.6939 11.2636 81.9775C11.2955 78.2612 8.18978 72.2279 7.58233 68.5346C6.97488 64.8412 8.19891 58.4959 11.2499 53.7014C14.3008 48.9069 16.3287 47.0625 22.2708 42.167C28.2129 37.2716 32.0996 38.9004 32.0996 38.9004L32.0951 38.8958Z" fill="var(--fill-0, #6C41FF)" stroke="var(--stroke-0, #263238)" stroke-miterlimit="10"/>
<path id="Vector_9" d="M22.5768 94.8011L34.8309 96.1959L34.1413 92.9705L26.4956 92.3098" stroke="var(--stroke-0, #263238)" stroke-miterlimit="10"/>
<path id="Vector_10" d="M18.2926 92.1355L17.6715 94.246L20.7453 94.5947" stroke="var(--stroke-0, #263238)" stroke-miterlimit="10"/>
<path id="Vector_11" d="M22.8919 71.0442C22.2525 70.4294 21.6862 69.8192 21.3117 69.2962" stroke="var(--stroke-0, #263238)" stroke-miterlimit="10"/>
<path id="Vector_12" d="M27.1533 74.6596C27.1533 74.6596 25.8607 73.6777 24.4449 72.4573" stroke="var(--stroke-0, #263238)" stroke-miterlimit="10"/>
</g>
<path id="Vector_13" d="M32.095 38.8958C32.095 38.8958 28.2083 37.267 22.2662 42.1625C16.3241 47.0579 14.2962 48.9023 11.2453 53.6968C9.35897 56.6653 8.16691 60.2256 7.68277 63.3822C7.75585 63.7401 7.83349 64.1025 7.92027 64.4741C9.6193 71.6866 11.5102 75.1735 11.5102 75.1735C11.5102 75.1735 14.7986 58.7391 20.5215 52.0772C26.2397 45.4154 35.7534 41.3641 35.7534 41.3641L32.0996 38.8958H32.095Z" fill="var(--fill-0, #6C41FF)" stroke="var(--stroke-0, #263238)" stroke-miterlimit="10"/>
<path id="Vector_14" d="M17.8132 6.83908C17.8132 6.83908 13.5245 10.8628 13.2047 14.0331C12.885 17.2035 12.5516 19.938 12.0172 20.9611C11.4829 21.9842 8.78815 22.6541 9.70161 24.2002C10.6105 25.7464 11.4692 25.7189 11.4692 25.7189C11.4692 25.7189 12.8485 32.5597 13.8807 33.5277C14.9129 34.4958 18.6079 33.9361 18.6079 33.9361L19.7451 42.2313C19.7451 42.2313 12.0812 49.0629 10.5877 58.5831C9.09416 68.0987 10.8023 73.5355 10.8023 73.5355C10.8023 73.5355 11.8026 58.5418 15.2555 52.926C18.7083 47.3102 26.7285 41.9927 27.9115 41.0338C29.0944 40.0749 32.0906 38.9049 32.0906 38.9049C32.0906 38.9049 30.6656 35.6704 30.4737 34.2435C30.2819 32.8166 30.3504 30.6602 30.6153 30.0775C30.8802 29.4949 35.6759 27.7468 37.4846 22.232C39.2932 16.7171 36.6396 10.2067 33.8307 7.43553C31.0218 4.66435 21.4031 3.27876 17.8132 6.84826V6.83908Z" fill="var(--fill-0, #BDBDBD)" stroke="var(--stroke-0, #263238)" stroke-miterlimit="10"/>
<path id="Vector_15" d="M37.4891 22.2228C39.2977 16.708 36.6441 10.1975 33.8352 7.42634C31.0263 4.65516 21.4076 3.26957 17.8177 6.83907C17.8177 6.83907 17.5893 7.05471 17.2331 7.42176C17.973 7.22447 19.4436 6.96295 21.403 7.28411C24.2759 7.75668 24.2119 10.0553 23.4309 12.2346C22.6499 14.4139 23.2345 14.8223 24.7006 15.9188C26.1667 17.0154 24.6686 19.0754 25.6963 19.9012C26.7239 20.7271 27.5689 16.2492 29.8251 19.47C32.0814 22.6908 30.5605 24.1819 29.1629 25.0903C27.7653 25.9988 26.6326 26.3291 26.6326 26.3291C26.6326 26.3291 28.7518 28.8204 30.8345 29.8481C31.8302 29.0865 35.8631 27.1779 37.4891 22.2182V22.2228Z" fill="var(--fill-0, #263238)" stroke="var(--stroke-0, #263238)" stroke-linecap="round" stroke-linejoin="round"/>
<g id="Group_5">
<path id="Vector_16" d="M13.7938 26.9256C13.7938 26.9256 16.7854 26.6778 18.1647 25.3381" stroke="var(--stroke-0, #263238)" stroke-miterlimit="10"/>
<path id="Vector_17" d="M15.6939 19.8278C15.7167 20.539 15.4518 21.1263 15.0955 21.14C14.7393 21.1538 14.4333 20.5849 14.4104 19.8737C14.3876 19.1626 14.6525 18.5753 15.0088 18.5615C15.365 18.5478 15.671 19.1167 15.6939 19.8278Z" fill="var(--fill-0, #263238)"/>
<path id="Vector_18" d="M14.4059 16.919C14.4059 16.919 15.3696 15.616 16.749 17.153" stroke="var(--stroke-0, #263238)" stroke-miterlimit="10"/>
</g>
<path id="Vector_19" d="M18.6079 33.9315L22.175 32.5826L19.6904 37.0651L18.6079 33.9315Z" fill="var(--fill-0, #263238)" stroke="var(--stroke-0, #263238)" stroke-miterlimit="10"/>
<path id="Vector_20" d="M8.33593 99.7792L3.65901 119.572L7.85637 120.554L10.1674 106.083L8.33593 99.7792Z" fill="var(--fill-0, white)" stroke="var(--stroke-0, #263238)" stroke-miterlimit="10"/>
<path id="Vector_21" d="M12.4695 52.4076C11.6245 54.2841 10.9394 56.3579 10.5877 58.5785C9.09423 68.0941 10.8024 73.5309 10.8024 73.5309C10.8024 73.5309 11.7889 58.7391 15.187 53.0361C14.1183 52.9122 13.2139 52.6783 12.4695 52.4076Z" fill="var(--fill-0, white)" stroke="var(--stroke-0, #263238)" stroke-miterlimit="10"/>
</g>
</svg>
