<svg xmlns="http://www.w3.org/2000/svg" width="140" height="28" viewBox="0 0 140 28" fill="none">
  <g fill="#F5C518">
    <path d="M14 3l3.05 6.2 6.85.1-5.5 4.05 2.1 6.55L14 16.15 7.5 19.9l2.1-6.55L4.1 9.3l6.85-.1L14 3z"/>
    <path d="M42 3l3.05 6.2 6.85.1-5.5 4.05 2.1 6.55L42 16.15l-6.5 3.75 2.1-6.55L32.1 9.3l6.85-.1L42 3z"/>
    <path d="M70 3l3.05 6.2 6.85.1-5.5 4.05 2.1 6.55L70 16.15l-6.5 3.75 2.1-6.55L60.1 9.3l6.85-.1L70 3z"/>
    <path d="M98 3l3.05 6.2 6.85.1-5.5 4.05 2.1 6.55L98 16.15l-6.5 3.75 2.1-6.55L88.1 9.3l6.85-.1L98 3z"/>
    <path d="M126 3l3.05 6.2 6.85.1-5.5 4.05 2.1 6.55L126 16.15l-6.5 3.75 2.1-6.55L116.1 9.3l6.85-.1L126 3z"/>
  </g>
</svg>
