<svg width="69" height="69" viewBox="0 0 69 69" fill="none" xmlns="http://www.w3.org/2000/svg">
  <g filter="url(#ext_glow)">
    <circle cx="34.5" cy="34.5" r="20.5" fill="#6C41FF"/>
  </g>
  <path d="M29.5 28.5h4.5v3.2c1.4 0 2.5 1.1 2.5 2.5s-1.1 2.5-2.5 2.5v3.2h-4.5v-3.2c-1.4 0-2.5-1.1-2.5-2.5s1.1-2.5 2.5-2.5v-3.2Z" stroke="white" stroke-width="0.9" stroke-linejoin="round"/>
  <path d="M36.5 31.5h4.5v3.2c1.2 0 2.2 1 2.2 2.2s-1 2.2-2.2 2.2v3.2h-4.5V39c-1.2 0-2.2-1-2.2-2.2" stroke="white" stroke-width="0.9" stroke-linecap="round" stroke-linejoin="round"/>
  <defs>
    <filter id="ext_glow" x="0" y="0" width="69" height="69" filterUnits="userSpaceOnUse" color-interpolation-filters="sRGB">
      <feFlood flood-opacity="0" result="BackgroundImageFix"/>
      <feColorMatrix in="SourceAlpha" type="matrix" values="0 0 0 0 0 0 0 0 0 0 0 0 0 0 0 0 0 0 127 0" result="hardAlpha"/>
      <feOffset/><feGaussianBlur stdDeviation="7"/><feComposite in2="hardAlpha" operator="out"/>
      <feColorMatrix type="matrix" values="0 0 0 0 0.423529 0 0 0 0 0.254902 0 0 0 0 1 0 0 0 0.35 0"/>
      <feBlend mode="normal" in2="BackgroundImageFix" result="effect1_dropShadow"/>
      <feBlend mode="normal" in="SourceGraphic" in2="effect1_dropShadow" result="shape"/>
    </filter>
  </defs>
</svg>
