<svg width="69" height="69" viewBox="0 0 69 69" fill="none" xmlns="http://www.w3.org/2000/svg">
  <g filter="url(#new_glow)">
    <circle cx="34.5" cy="34.5" r="20.5" fill="#6C41FF"/>
  </g>
  <path d="M38.5 29.5c2.2 1.2 3.5 3.2 3.5 5.5 0 3.5-2.7 6-6.5 6h-1c-1.4 0-2.5-.7-3.2-1.8" stroke="white" stroke-width="0.9" stroke-linecap="round"/>
  <path d="M28.5 32.5c0-3.3 2.7-6 6-6h.5" stroke="white" stroke-width="0.9" stroke-linecap="round"/>
  <path d="M28.5 32.5v5c0 .8.7 1.5 1.5 1.5h2.2l1.8 3.5h2.2l-1.5-3.5H36" stroke="white" stroke-width="0.9" stroke-linecap="round" stroke-linejoin="round"/>
  <path d="M41.5 28.5c1.2-.3 2.2-1.2 2.5-2.5M42.5 33c1.4.2 2.5 1.2 3 2.5" stroke="white" stroke-width="0.9" stroke-linecap="round"/>
  <defs>
    <filter id="new_glow" x="0" y="0" width="69" height="69" filterUnits="userSpaceOnUse" color-interpolation-filters="sRGB">
      <feFlood flood-opacity="0" result="BackgroundImageFix"/>
      <feColorMatrix in="SourceAlpha" type="matrix" values="0 0 0 0 0 0 0 0 0 0 0 0 0 0 0 0 0 0 127 0" result="hardAlpha"/>
      <feOffset/><feGaussianBlur stdDeviation="7"/><feComposite in2="hardAlpha" operator="out"/>
      <feColorMatrix type="matrix" values="0 0 0 0 0.423529 0 0 0 0 0.254902 0 0 0 0 1 0 0 0 0.35 0"/>
      <feBlend mode="normal" in2="BackgroundImageFix" result="effect1_dropShadow"/>
      <feBlend mode="normal" in="SourceGraphic" in2="effect1_dropShadow" result="shape"/>
    </filter>
  </defs>
</svg>
