<svg width="69" height="69" viewBox="0 0 69 69" fill="none" xmlns="http://www.w3.org/2000/svg">
  <g filter="url(#faq_glow)">
    <circle cx="34.5" cy="34.5" r="20.5" fill="#6C41FF"/>
  </g>
  <path d="M26.5 29.5c0-1.1.9-2 2-2h8c1.1 0 2 .9 2 2v6c0 1.1-.9 2-2 2h-3.2L30 40.5v-3h-1.5c-1.1 0-2-.9-2-2v-6Z" stroke="white" stroke-width="0.9" stroke-linejoin="round"/>
  <path d="M38.5 32.5h2c1.1 0 2 .9 2 2v5c0 1.1-.9 2-2 2h-1.2L37.5 43.5v-2H36" stroke="white" stroke-width="0.9" stroke-linecap="round" stroke-linejoin="round"/>
  <defs>
    <filter id="faq_glow" x="0" y="0" width="69" height="69" filterUnits="userSpaceOnUse" color-interpolation-filters="sRGB">
      <feFlood flood-opacity="0" result="BackgroundImageFix"/>
      <feColorMatrix in="SourceAlpha" type="matrix" values="0 0 0 0 0 0 0 0 0 0 0 0 0 0 0 0 0 0 127 0" result="hardAlpha"/>
      <feOffset/><feGaussianBlur stdDeviation="7"/><feComposite in2="hardAlpha" operator="out"/>
      <feColorMatrix type="matrix" values="0 0 0 0 0.423529 0 0 0 0 0.254902 0 0 0 0 1 0 0 0 0.35 0"/>
      <feBlend mode="normal" in2="BackgroundImageFix" result="effect1_dropShadow"/>
      <feBlend mode="normal" in="SourceGraphic" in2="effect1_dropShadow" result="shape"/>
    </filter>
  </defs>
</svg>
