<svg preserveAspectRatio="none" width="100%" height="100%" overflow="visible" style="display: block;" viewBox="0 0 36.0001 36" fill="none" xmlns="http://www.w3.org/2000/svg">
<g id="Dashboard_1_">
<path id="Vector" d="M6.61111 21.2778H3.55556C1.86805 21.2778 0.5 19.9097 0.5 18.2222V3.55556C0.5 1.86805 1.86805 0.5 3.55556 0.5H6.61111C8.29862 0.5 9.66667 1.86805 9.66667 3.55556V18.2222C9.66667 19.9097 8.29862 21.2778 6.61111 21.2778Z" stroke="var(--stroke-0, #6C41FF)" stroke-miterlimit="10" stroke-linecap="round" stroke-linejoin="round"/>
<path id="Vector_2" d="M18.2222 35.5H3.55556C1.86805 35.5 0.5 34.132 0.5 32.4445V29.3889C0.5 27.7014 1.86805 26.3333 3.55556 26.3333H18.2222C19.9097 26.3333 21.2778 27.7014 21.2778 29.3889V32.4445C21.2778 34.132 19.9097 35.5 18.2222 35.5Z" stroke="var(--stroke-0, #6C41FF)" stroke-miterlimit="10" stroke-linecap="round" stroke-linejoin="round"/>
<path id="Vector_3" d="M32.4444 35.5H29.3888C27.7013 35.5 26.3333 34.132 26.3333 32.4445V29.3889C26.3333 27.7014 27.7013 26.3333 29.3888 26.3333H32.4444C34.1319 26.3333 35.4999 27.7014 35.4999 29.3889V32.4445C35.4999 34.132 34.1319 35.5 32.4444 35.5Z" stroke="var(--stroke-0, #6C41FF)" stroke-miterlimit="10" stroke-linecap="round" stroke-linejoin="round"/>
<path id="Vector_4" d="M32.4445 21.2778H17.7779C16.0904 21.2778 14.7223 19.9097 14.7223 18.2222V3.55556C14.7223 1.86805 16.0904 0.5 17.7779 0.5H32.4445C34.132 0.5 35.5001 1.86805 35.5001 3.55556V18.2222C35.5001 19.9097 34.132 21.2778 32.4445 21.2778Z" stroke="var(--stroke-0, #6C41FF)" stroke-miterlimit="10" stroke-linecap="round" stroke-linejoin="round"/>
</g>
</svg>
