<svg preserveAspectRatio="none" overflow="visible" style="display: block;" width="48" height="48" viewBox="0 0 48 48" fill="none" xmlns="http://www.w3.org/2000/svg">
<g id="Group 715">
<circle id="Ellipse 23" cx="24" cy="24" r="24" fill="#D9D9D9"/>
<g id="Group 718">
<path id="path183" d="M13 16.4871V13.6642C13 13.2973 13.2974 13 13.6642 13H16.4871" stroke="black" stroke-miterlimit="10" stroke-linecap="round" stroke-linejoin="round"/>
<path id="path187" d="M34.3417 16.4871V13.6642C34.3417 13.2973 34.0444 13 33.6776 13H30.8547" stroke="black" stroke-miterlimit="10" stroke-linecap="round" stroke-linejoin="round"/>
<path id="path191" d="M34.3417 30.8547V33.6776C34.3417 34.0444 34.0444 34.3417 33.6776 34.3417H30.8547" stroke="black" stroke-miterlimit="10" stroke-linecap="round" stroke-linejoin="round"/>
<path id="path195" d="M13 30.8547V33.6776C13 34.0444 13.2974 34.3417 13.6642 34.3417H16.4871" stroke="black" stroke-miterlimit="10" stroke-linecap="round" stroke-linejoin="round"/>
<path id="path199" d="M23.0763 32.2863L15.9856 28.7367C15.5359 28.5117 15.2519 28.0519 15.2519 27.549V19.7932C15.2519 19.2904 15.5359 18.8306 15.9855 18.6055L23.0762 15.0554C23.4505 14.868 23.8913 14.868 24.2656 15.0554L31.3562 18.6055C31.806 18.8306 32.0899 19.2904 32.0899 19.7932V27.549C32.0899 28.0519 31.8059 28.5117 31.3562 28.7367L24.2655 32.2863C23.8913 32.4737 23.4506 32.4737 23.0763 32.2863Z" stroke="black" stroke-miterlimit="10" stroke-linecap="round" stroke-linejoin="round"/>
<path id="path203" d="M31.8799 19.0776L23.6709 23.1874L15.4618 19.0776" stroke="black" stroke-miterlimit="10" stroke-linecap="round" stroke-linejoin="round"/>
<path id="path207" d="M23.6709 32.4268V23.1874" stroke="black" stroke-miterlimit="10" stroke-linecap="round" stroke-linejoin="round"/>
</g>
</g>
</svg>
